:FULLY-SPECIFIED
:FORCE-ALL-JOINTS-BE-3DOF
:DEGREES
2854
root -6.07942 13.2709 -28.797 1241.01 -66.9002 -159.283
lfemur -65.9435 45.1705 -6.06085
ltibia 77.2544 0 0
lfoot -4.79463 -6.41992 0
ltoes -28.5469 0 0
rfemur -31.287 -19.2045 22.2284
rtibia 88.9531 0 0
rfoot -40.9853 -29.0971 0
rtoes -14.0243 0 0
lowerback 15.6039 5.61859 1.0271
upperback -4.51292 7.98948 1.64461
thorax -13.9218 3.6939 -0.920399
lowerneck -2.55175 9.63 2.19978
upperneck 9.16845 12.5371 2.07249
head 3.40749 6.33372 0.770201
lclavicle -4.14805e-14 -2.01508e-14 0
lhumerus 5.41519 12.3061 84.3303
lradius 93.496 0 0
lwrist -19.0179 0 0
lhand -39.5092 388.473 0
lfingers 7.12502 0 0
lthumb -12.4946 -661.92 0
rclavicle -4.14805e-14 -2.01508e-14 0
rhumerus -59.2189 51.1259 -111.62
rradius 113.581 0 0
rwrist -83.7672 0 0
rhand 7.96328 -386.28 0
rfingers 7.12502 0 0
rthumb 33.1922 306.76 0
2855
root -6.08047 13.2681 -28.7961 1240.96 -66.9056 -159.222
lfemur -65.9863 45.1594 -6.05597
ltibia 77.2828 0 0
lfoot -4.82128 -6.42808 0
ltoes -28.5986 0 0
rfemur -31.3099 -19.1962 22.2559
rtibia 88.9727 0 0
rfoot -40.9699 -29.1454 0
rtoes -14.044 0 0
lowerback 15.6208 5.61387 1.054
upperback -4.51794 7.98977 1.64887
thorax -13.9348 3.69137 -0.932486
lowerneck -2.5564 9.63128 2.20053
upperneck 9.16925 12.5386 2.0736
head 3.40863 6.33454 0.770809
lclavicle -4.12444e-14 -1.99375e-14 0
lhumerus 5.42399 12.3102 84.3311
lradius 93.4888 0 0
lwrist -19.0108 0 0
lhand -39.506 388.481 0
lfingers 7.12502 0 0
lthumb -12.4915 -661.912 0
rclavicle -4.12444e-14 -1.99375e-14 0
rhumerus -59.2184 51.1405 -111.617
rradius 113.578 0 0
rwrist -83.7475 0 0
rhand 7.96676 -386.271 0
rfingers 7.12502 0 0
rthumb 33.1955 306.769 0
2856
root -6.08153 13.2653 -28.7952 1240.92 -66.9107 -159.163
lfemur -66.0283 45.1484 -6.05116
ltibia 77.3106 0 0
lfoot -4.84828 -6.43523 0
ltoes -28.6519 0 0
rfemur -31.3328 -19.1878 22.283
rtibia 88.9918 0 0
rfoot -40.9544 -29.1925 0
rtoes -14.0629 0 0
lowerback 15.6376 5.60924 1.08048
upperback -4.52292 7.99009 1.65302
thorax -13.9476 3.68889 -0.944464
lowerneck -2.56102 9.6325 2.20126
upperneck 9.16997 12.54 2.07466
head 3.40974 6.33532 0.771397
lclavicle -4.09532e-14 -1.97083e-14 0
lhumerus 5.43234 12.3145 84.3318
lradius 93.4811 0 0
lwrist -19.0038 0 0
lhand -39.5032 388.489 0
lfingers 7.12502 0 0
lthumb -12.4889 -661.904 0
rclavicle -4.09532e-14 -1.97083e-14 0
rhumerus -59.2177 51.1548 -111.614
rradius 113.576 0 0
rwrist -83.7281 0 0
rhand 7.96991 -386.263 0
rfingers 7.12502 0 0
rthumb 33.1985 306.778 0
2857
root -6.08258 13.2625 -28.7944 1240.88 -66.9154 -159.104
lfemur -66.0694 45.1374 -6.04647
ltibia 77.3376 0 0
lfoot -4.87559 -6.44136 0
ltoes -28.7067 0 0
rfemur -31.3558 -19.1793 22.3094
rtibia 89.0105 0 0
rfoot -40.939 -29.2384 0
rtoes -14.081 0 0
lowerback 15.6542 5.60472 1.10648
upperback -4.52786 7.99042 1.65704
thorax -13.9604 3.68646 -0.956311
lowerneck -2.56561 9.63364 2.20196
upperneck 9.17063 12.5413 2.07567
head 3.41082 6.33605 0.771964
lclavicle -4.06051e-14 -1.94631e-14 0
lhumerus 5.44027 12.319 84.3323
lradius 93.4728 0 0
lwrist -18.997 0 0
lhand -39.5009 388.499 0
lfingers 7.12502 0 0
lthumb -12.4866 -661.894 0
rclavicle -4.06051e-14 -1.94631e-14 0
rhumerus -59.217 51.1688 -111.611
rradius 113.573 0 0
rwrist -83.7089 0 0
rhand 7.97278 -386.254 0
rfingers 7.12502 0 0
rthumb 33.2012 306.788 0
2858
root -6.08364 13.2597 -28.7935 1240.83 -66.9197 -159.048
lfemur -66.1096 45.1266 -6.04191
ltibia 77.364 0 0
lfoot -4.9032 -6.44648 0
ltoes -28.763 0 0
rfemur -31.3787 -19.1709 22.3353
rtibia 89.0288 0 0
rfoot -40.9239 -29.2829 0
rtoes -14.098 0 0
lowerback 15.6707 5.60032 1.13193
upperback -4.53275 7.99079 1.66091
thorax -13.9731 3.68409 -0.968005
lowerneck -2.57014 9.6347 2.20263
upperneck 9.17125 12.5425 2.07662
head 3.41187 6.33673 0.772508
lclavicle -4.01981e-14 -1.92019e-14 0
lhumerus 5.44779 12.3238 84.3327
lradius 93.464 0 0
lwrist -18.9905 0 0
lhand -39.4991 388.509 0
lfingers 7.12502 0 0
lthumb -12.4849 -661.884 0
rclavicle -4.01981e-14 -1.92019e-14 0
rhumerus -59.2162 51.1824 -111.608
rradius 113.57 0 0
rwrist -83.6899 0 0
rhand 7.97543 -386.245 0
rfingers 7.12502 0 0
rthumb 33.2037 306.797 0
2859
root -6.0847 13.2569 -28.7926 1240.79 -66.9236 -158.992
lfemur -66.1489 45.1158 -6.0375
ltibia 77.3897 0 0
lfoot -4.93108 -6.45057 0
ltoes -28.8207 0 0
rfemur -31.4016 -19.1625 22.3605
rtibia 89.0467 0 0
rfoot -40.9092 -29.3259 0
rtoes -14.1139 0 0
lowerback 15.6869 5.59605 1.15674
upperback -4.53756 7.99117 1.66461
thorax -13.9857 3.68177 -0.979525
lowerneck -2.57461 9.63568 2.20326
upperneck 9.17184 12.5436 2.07751
head 3.41291 6.33735 0.77303
lclavicle -3.97302e-14 -1.89245e-14 0
lhumerus 5.45493 12.3288 84.3329
lradius 93.4544 0 0
lwrist -18.9841 0 0
lhand -39.4977 388.521 0
lfingers 7.12502 0 0
lthumb -12.4836 -661.872 0
rclavicle -3.97302e-14 -1.89245e-14 0
rhumerus -59.2154 51.1956 -111.605
rradius 113.568 0 0
rwrist -83.6713 0 0
rhand 7.97788 -386.236 0
rfingers 7.12502 0 0
rthumb 33.206 306.807 0
2860
root -6.08575 13.2541 -28.7918 1240.76 -66.9272 -158.939
lfemur -66.1873 45.1053 -6.03327
ltibia 77.4148 0 0
lfoot -4.95921 -6.45364 0
ltoes -28.8796 0 0
rfemur -31.4244 -19.1542 22.3849
rtibia 89.0644 0 0
rfoot -40.8949 -29.3673 0
rtoes -14.1285 0 0
lowerback 15.703 5.59192 1.18087
upperback -4.5423 7.99158 1.66813
thorax -13.9981 3.67953 -0.990848
lowerneck -2.57901 9.63656 2.20386
upperneck 9.17243 12.5446 2.07833
head 3.41394 6.33791 0.773528
lclavicle -3.91995e-14 -1.86309e-14 0
lhumerus 5.46172 12.3342 84.3329
lradius 93.4442 0 0
lwrist -18.978 0 0
lhand -39.4969 388.534 0
lfingers 7.12502 0 0
lthumb -12.4828 -661.859 0
rclavicle -3.91995e-14 -1.86309e-14 0
rhumerus -59.2145 51.2084 -111.603
rradius 113.565 0 0
rwrist -83.653 0 0
rhand 7.9802 -386.227 0
rfingers 7.12502 0 0
rthumb 33.2082 306.817 0
